<?xml version="1.0" standalone="no"?>
<!DOCTYPE svg PUBLIC "-//W3C//DTD SVG 20010904//EN"
 "http://www.w3.org/TR/2001/REC-SVG-20010904/DTD/svg10.dtd">
<svg version="1.0" xmlns="http://www.w3.org/2000/svg"
 width="200.000000pt" height="200.000000pt" viewBox="0 0 200.000000 200.000000"
 preserveAspectRatio="xMidYMid meet">
<metadata>
Created by potrace 1.16, written by Peter Selinger 2001-2019
</metadata>
<g transform="translate(0.000000,200.000000) scale(0.100000,-0.100000)"
fill="#0f3e99" stroke="none">
<path d="M0 1000 l0 -1000 1000 0 1000 0 0 1000 0 1000 -1000 0 -1000 0 0
-1000z m918 405 c191 -175 211 -199 198 -248 -3 -13 -86 -97 -192 -193 -141
-127 -193 -169 -213 -169 l-26 0 -3 103 -3 102 -229 0 -229 0 -20 26 c-19 24
-21 40 -21 155 0 121 1 129 22 143 19 13 60 16 250 16 l228 0 0 113 c0 63 3
117 7 120 19 19 55 -7 231 -168z m380 -417 l3 -108 229 0 229 0 20 -26 c19
-24 21 -40 21 -150 0 -175 19 -164 -270 -164 l-229 0 -3 -112 c-4 -155 -8
-155 -175 -2 -274 251 -280 258 -252 314 8 15 97 103 197 195 227 206 226 205
230 53z"/>
</g>
</svg>
